<svg id="flat" height="512" viewBox="0 0 512 512" width="512" xmlns="http://www.w3.org/2000/svg"><g fill="#d1e4ff"><path d="m80 120h16v104h-16z"/><path d="m80 288h16v88h-16z"/><path d="m80 240h16v32h-16z"/><path d="m288 80h88v16h-88z"/><path d="m120 80h104v16h-104z"/><path d="m240 80h32v16h-32z"/><path d="m416 288h16v96h-16z"/><path d="m416 144h16v80h-16z"/><path d="m416 240h16v32h-16z"/><path d="m128 416h96v16h-96z"/><path d="m288 416h88v16h-88z"/><path d="m240 416h32v16h-32z"/><path d="m105.088 348h101.823v16h-101.823z" transform="matrix(.707 -.707 .707 .707 -206.045 214.594)"/><path d="m144 95.431h16v113.137h-16z" transform="matrix(.707 -.707 .707 .707 -62.96 152)"/><path d="m305.088 148h101.823v16h-101.823z" transform="matrix(.707 -.707 .707 .707 -6.033 297.437)"/><path d="m348 305.088h16v101.823h-16z" transform="matrix(.707 -.707 .707 .707 -147.46 356)"/></g><path d="m320 256a64 64 0 1 1 -64-64 63.74276 63.74276 0 0 1 64 64z" fill="#91c0ff"/><path d="m304 280v18.34a64.02065 64.02065 0 0 1 -104-11.33v-7.01a15.99548 15.99548 0 0 1 16-16h72a15.99548 15.99548 0 0 1 16 16z" fill="#ffb401"/><path d="m264 248v36a12 12 0 1 1 -24 0v-36z" fill="#ffceb6"/><path d="m264 248v32a15.99555 15.99555 0 0 1 -16-16v-16z" fill="#ffbfa1"/><path d="m272 240h-24l-8 8v8a16 16 0 0 0 16 16 16 16 0 0 0 16-16z" fill="#ffceb6"/><path d="m240 248v-16a16 16 0 0 1 16-16h12.6863a11.31369 11.31369 0 0 1 11.3137 11.3137 11.31372 11.31372 0 0 1 -3.31371 8l-4.68629 4.6863h-24z" fill="#c47220"/><path d="m152 424a64 64 0 1 1 -64-64 63.74276 63.74276 0 0 1 64 64z" fill="#91c0ff"/><path d="m136 448v18.34a64.02065 64.02065 0 0 1 -104-11.33v-7.01a15.99548 15.99548 0 0 1 16-16h72a15.99548 15.99548 0 0 1 16 16z" fill="#f78e00"/><path d="m96 416v36a12 12 0 1 1 -24 0v-36z" fill="#ffceb6"/><path d="m96 416v32a15.99555 15.99555 0 0 1 -16-16v-16z" fill="#ffbfa1"/><path d="m104 408h-24l-8 8v8a16 16 0 0 0 16 16 16 16 0 0 0 16-16z" fill="#ffceb6"/><path d="m72 416v-16a16 16 0 0 1 16-16h12.6863a11.31369 11.31369 0 0 1 11.3137 11.3137 11.31372 11.31372 0 0 1 -3.31371 8l-4.68629 4.6863h-24z" fill="#c47220"/><path d="m488 424a64 64 0 1 1 -64-64 63.74276 63.74276 0 0 1 64 64z" fill="#91c0ff"/><path d="m472 448v18.34a64.02065 64.02065 0 0 1 -104-11.33v-7.01a15.99548 15.99548 0 0 1 16-16h72a15.99548 15.99548 0 0 1 16 16z" fill="#02c26a"/><path d="m432 416v36a12 12 0 1 1 -24 0v-36z" fill="#ffceb6"/><path d="m432 416v32a15.99555 15.99555 0 0 1 -16-16v-16z" fill="#ffbfa1"/><path d="m440 408h-24l-8 8v8a16 16 0 0 0 16 16 16 16 0 0 0 16-16z" fill="#ffceb6"/><path d="m408 416v-16a16 16 0 0 1 16-16h12.6863a11.31369 11.31369 0 0 1 11.3137 11.3137 11.31372 11.31372 0 0 1 -3.31371 8l-4.68629 4.6863h-24z" fill="#c47220"/><path d="m488 88a64 64 0 1 1 -64-64 63.74276 63.74276 0 0 1 64 64z" fill="#91c0ff"/><path d="m472 112v18.34a64.02065 64.02065 0 0 1 -104-11.33v-7.01a15.99548 15.99548 0 0 1 16-16h72a15.99548 15.99548 0 0 1 16 16z" fill="#548aff"/><path d="m432 80v36a12 12 0 1 1 -24 0v-36z" fill="#ffceb6"/><path d="m432 80v32a15.99555 15.99555 0 0 1 -16-16v-16z" fill="#ffbfa1"/><path d="m440 72h-24l-8 8v8a16 16 0 0 0 16 16 16 16 0 0 0 16-16z" fill="#ffceb6"/><path d="m408 80v-16a16 16 0 0 1 16-16h12.6863a11.31369 11.31369 0 0 1 11.3137 11.3137 11.31372 11.31372 0 0 1 -3.31371 8l-4.68629 4.6863h-24z" fill="#c47220"/><path d="m152 88a64 64 0 1 1 -64-64 63.74276 63.74276 0 0 1 64 64z" fill="#91c0ff"/><path d="m136 112v18.34a64.02065 64.02065 0 0 1 -104-11.33v-7.01a15.99548 15.99548 0 0 1 16-16h72a15.99548 15.99548 0 0 1 16 16z" fill="#f5714f"/><path d="m96 80v36a12 12 0 1 1 -24 0v-36z" fill="#ffceb6"/><path d="m96 80v32a15.99555 15.99555 0 0 1 -16-16v-16z" fill="#ffbfa1"/><path d="m104 72h-24l-8 8v8a16 16 0 0 0 16 16 16 16 0 0 0 16-16z" fill="#ffceb6"/><path d="m72 80v-16a16 16 0 0 1 16-16h12.6863a11.31369 11.31369 0 0 1 11.3137 11.3137 11.31372 11.31372 0 0 1 -3.31371 8l-4.68629 4.6863h-24z" fill="#c47220"/></svg>