<svg height="512" viewBox="0 0 128 128" width="512" xmlns="http://www.w3.org/2000/svg"><path d="m123.4 103.348h-9v-58.526a7.008 7.008 0 0 0 -7-7h-5.028v-18.048a3 3 0 0 0 -3-3h-66.745a3 3 0 0 0 -3 3v18.048h-5.027a7.008 7.008 0 0 0 -7 7v58.526h-8.995a1 1 0 0 0 -1 1v3.933a6.953 6.953 0 0 0 6.945 6.945h102.9a6.953 6.953 0 0 0 6.947-6.945v-3.933a1 1 0 0 0 -.997-1z" fill="#e6e7e8"/><path d="m109.4 100.348v-59.526a6 6 0 0 0 -6-6h-82.8a6 6 0 0 0 -6 6v59.526z" fill="#6dc9f7"/><path d="m102.372 100.348v-54.689a2 2 0 0 0 -2-2h-76.745a2 2 0 0 0 -2 2v54.689z" fill="#d4fbff"/><path d="m4.605 100.348v3.933a5.945 5.945 0 0 0 5.945 5.945h102.9a5.946 5.946 0 0 0 5.947-5.945v-3.933z" fill="#0089ef"/><path d="m4.605 100.348v3.933a5.945 5.945 0 0 0 5.945 5.945h102.9a5.946 5.946 0 0 0 5.947-5.945v-3.933z" fill="#0089ef"/><path d="m42.949 100.348v1.991a3.009 3.009 0 0 0 3.009 3.009h32.083a3.01 3.01 0 0 0 3.01-3.009v-1.991z" fill="#6dc9f7"/><path d="m97.372 100.348v-84.574a2 2 0 0 0 -2-2h-66.745a2 2 0 0 0 -2 2v84.574z" fill="#ffd7e5"/><path d="m26.627 97.348h70.745v3h-70.745z" fill="#fff"/><g fill="#fa759e"><rect height="13.25" rx="2" width="19.25" x="32.375" y="51.55"/><rect height="11.25" rx="2" width="24.25" x="67.375" y="28.55"/><rect height="11.25" rx="2" width="24.25" x="67.375" y="52.55"/><rect height="11.25" rx="2" width="24.25" x="67.375" y="76.55"/></g><path d="m119.4 99.348h-9v-58.526a7.008 7.008 0 0 0 -7-7h-5.028v-18.048a3 3 0 0 0 -3-3h-34.872a1 1 0 0 0 0 2h34.872a1 1 0 0 1 1 1v83.574h-68.744v-83.574a1 1 0 0 1 1-1h9.192a1 1 0 0 0 0-2h-9.192a3 3 0 0 0 -3 3v18.048h-5.028a7.008 7.008 0 0 0 -7 7v58.526h-8.995a1 1 0 0 0 -1 1v3.933a6.952 6.952 0 0 0 6.945 6.945h102.9a6.953 6.953 0 0 0 6.947-6.945v-3.933a1 1 0 0 0 -.997-1zm-16-63.526a5.006 5.006 0 0 1 5 5v58.526h-5.029v-53.689a3 3 0 0 0 -3-3h-2v-6.837zm-80.772 63.526v-53.689a1 1 0 0 1 1-1h2v54.689zm78.744 0h-3v-54.689h2a1 1 0 0 1 1 1zm-85.772-58.526a5.006 5.006 0 0 1 5-5h5.029v6.837h-2a3 3 0 0 0 -3 3v53.689h-5.029zm102.8 63.459a4.951 4.951 0 0 1 -4.947 4.945h-102.903a4.95 4.95 0 0 1 -4.945-4.945v-2.933h112.795z" fill="#3a2c60"/><path d="m43 14.774h12.167a1 1 0 0 0 0-2h-12.167a1 1 0 0 0 0 2z" fill="#3a2c60"/><path d="m52.625 57.175v-3.625a3 3 0 0 0 -3-3h-15.25a3 3 0 0 0 -3 3v9.25a3 3 0 0 0 3 3h15.25a3 3 0 0 0 3-3v-3.625h4v23a1 1 0 0 0 1 1h8.75v2.625a3 3 0 0 0 3 3h20.25a3 3 0 0 0 3-3v-7.25a3 3 0 0 0 -3-3h-20.25a3 3 0 0 0 -3 3v2.625h-7.75v-22h7.75v2.625a3 3 0 0 0 3 3h20.25a3 3 0 0 0 3-3v-7.25a3 3 0 0 0 -3-3h-20.25a3 3 0 0 0 -3 3v2.625h-7.75v-22h7.75v2.625a3 3 0 0 0 3 3h20.25a3 3 0 0 0 3-3v-7.25a3 3 0 0 0 -3-3h-20.25a3 3 0 0 0 -3 3v2.625h-8.75a1 1 0 0 0 -1 1v23zm-2 5.625a1 1 0 0 1 -1 1h-15.25a1 1 0 0 1 -1-1v-9.25a1 1 0 0 1 1-1h15.25a1 1 0 0 1 1 1zm17.75 15.75a1 1 0 0 1 1-1h20.25a1 1 0 0 1 1 1v7.25a1 1 0 0 1 -1 1h-20.25a1 1 0 0 1 -1-1zm0-24a1 1 0 0 1 1-1h20.25a1 1 0 0 1 1 1v7.25a1 1 0 0 1 -1 1h-20.25a1 1 0 0 1 -1-1zm0-24a1 1 0 0 1 1-1h20.25a1 1 0 0 1 1 1v7.25a1 1 0 0 1 -1 1h-20.25a1 1 0 0 1 -1-1z" fill="#3a2c60"/></svg>